<svg xmlns="http://www.w3.org/2000/svg" version="1.1" xmlns:xlink="http://www.w3.org/1999/xlink" xmlns:svgjs="http://svgjs.dev/svgjs" width="2000" height="1247" viewBox="0 0 2000 1247"><g transform="matrix(1,0,0,1,-1.2121212121212466,0.504858299595071)"><svg viewBox="0 0 396 247" data-background-color="#728297" preserveAspectRatio="xMidYMid meet" height="1247" width="2000" xmlns="http://www.w3.org/2000/svg" xmlns:xlink="http://www.w3.org/1999/xlink"><g id="tight-bounds" transform="matrix(1,0,0,1,0.2400000000000091,-0.09999999999999432)"><svg viewBox="0 0 395.52 247.2" height="247.2" width="395.52"><g><svg></svg></g><g><svg viewBox="0 0 395.52 247.2" height="247.2" width="395.52"><g transform="matrix(1,0,0,1,75.54432,99.89651985296058)"><svg viewBox="0 0 244.43135999999998 47.406960294078814" height="47.406960294078814" width="244.43135999999998"><g><svg viewBox="0 0 310.2895374058948 60.18001855191305" height="47.406960294078814" width="244.43135999999998"><g transform="matrix(1,0,0,1,0,8.317209510430821)"><svg viewBox="0 0 244.43135999999998 43.54559953105141" height="43.54559953105141" width="244.43135999999998"><g><svg viewBox="0 0 244.43135999999998 43.54559953105141" height="43.54559953105141" width="244.43135999999998"><g><svg viewBox="0 0 244.43135999999998 24.052249504319587" height="24.052249504319587" width="244.43135999999998"><g transform="matrix(1,0,0,1,0,0)"><svg width="244.43135999999998" viewBox="0.320000022649765 -38.66999816894531 398.44000244140625 39.209999084472656" height="24.052249504319587" data-palette-color="#0080ff"><path d="M17.04 0L0.32-38.16 8.89-38.16 20.87-9.06 32.86-38.16 41.43-38.16 24.71 0 17.04 0ZM46.19 0L46.19-38.16 53.98-38.16 53.98 0 46.19 0ZM61.49-5.08L65.62-11.35Q67.7-10.18 69.83-9.24 71.97-8.3 74.26-7.65 76.56-7.01 79.08-6.67 81.61-6.32 84.47-6.32L84.47-6.32Q87.91-6.32 90.33-6.77 92.74-7.23 94.27-8.02 95.8-8.81 96.49-9.91 97.19-11.01 97.19-12.3L97.19-12.3Q97.19-14.38 95.45-15.59 93.72-16.8 90.11-16.8L90.11-16.8Q88.52-16.8 86.76-16.59 85-16.38 83.21-16.14 81.42-15.89 79.67-15.69 77.92-15.48 76.39-15.48L76.39-15.48Q73.82-15.48 71.47-16.14 69.11-16.8 67.29-18.12 65.47-19.43 64.4-21.41 63.33-23.39 63.33-26.03L63.33-26.03Q63.33-27.59 63.75-29.13 64.18-30.66 65.12-32.07 66.06-33.47 67.55-34.68 69.04-35.89 71.15-36.77 73.26-37.65 76.03-38.15 78.8-38.65 82.34-38.65L82.34-38.65Q84.91-38.65 87.5-38.37 90.08-38.09 92.54-37.57 94.99-37.06 97.26-36.34 99.53-35.62 101.48-34.74L101.48-34.74 98.09-28.49Q96.48-29.2 94.62-29.8 92.77-30.4 90.74-30.83 88.72-31.27 86.56-31.53 84.39-31.79 82.15-31.79L82.15-31.79Q78.95-31.79 76.89-31.32 74.82-30.86 73.6-30.14 72.38-29.42 71.91-28.53 71.43-27.64 71.43-26.76L71.43-26.76Q71.43-25.05 72.97-23.96 74.51-22.88 77.66-22.88L77.66-22.88Q78.93-22.88 80.57-23.06 82.22-23.24 84.04-23.46 85.86-23.68 87.75-23.86 89.64-24.05 91.43-24.05L91.43-24.05Q94.79-24.05 97.39-23.29 100-22.53 101.75-21.13 103.51-19.73 104.41-17.74 105.32-15.75 105.32-13.28L105.32-13.28Q105.32-9.99 103.79-7.41 102.27-4.83 99.45-3.06 96.63-1.29 92.65-0.38 88.67 0.54 83.78 0.54L83.78 0.54Q80.56 0.54 77.49 0.13 74.41-0.27 71.59-1.01 68.77-1.76 66.22-2.8 63.67-3.83 61.49-5.08L61.49-5.08ZM112.86 0L112.86-38.16 120.65-38.16 120.65 0 112.86 0ZM128.26-19.19L128.26-19.19Q128.26-23.51 129.85-27.1 131.44-30.69 134.3-33.26 137.17-35.84 141.19-37.26 145.2-38.67 150.09-38.67L150.09-38.67Q154.95-38.67 158.97-37.26 163-35.84 165.87-33.26 168.74-30.69 170.33-27.1 171.91-23.51 171.91-19.19L171.91-19.19Q171.91-14.84 170.33-11.22 168.74-7.59 165.87-4.98 163-2.37 158.97-0.92 154.95 0.54 150.09 0.54L150.09 0.54Q145.2 0.54 141.19-0.92 137.17-2.37 134.3-4.98 131.44-7.59 129.85-11.22 128.26-14.84 128.26-19.19ZM136-19.19L136-19.19Q136-16.24 137.06-13.87 138.12-11.5 140.02-9.83 141.91-8.15 144.48-7.25 147.06-6.35 150.09-6.35L150.09-6.35Q153.12-6.35 155.69-7.25 158.27-8.15 160.15-9.83 162.03-11.5 163.1-13.87 164.17-16.24 164.17-19.19L164.17-19.19Q164.17-22.14 163.1-24.49 162.03-26.83 160.15-28.45 158.27-30.08 155.69-30.93 153.12-31.79 150.09-31.79L150.09-31.79Q147.06-31.79 144.48-30.93 141.91-30.08 140.02-28.45 138.12-26.83 137.06-24.49 136-22.14 136-19.19ZM180.46 0L180.46-38.16 188.2-38.16 211.97-25.71 211.97-38.16 219.71-38.16 219.71 0 211.97 0 211.97-17.5 188.2-29.88 188.2 0 180.46 0ZM242 0L242-31.37 227.91-31.37 227.91-38.16 263.83-38.16 263.83-31.37 249.74-31.37 249.74 0 242 0ZM272.08 0L272.08-38.16 304.57-38.16 304.57-31.37 279.82-31.37 279.82-23.75 301.74-23.75 301.74-17.38 279.82-17.38 279.82-6.76 305.09-6.76 305.09 0 272.08 0ZM311.36-19.31L311.36-19.31Q311.36-23.39 312.9-26.92 314.43-30.44 317.35-33.04 320.27-35.64 324.48-37.13 328.69-38.62 334.01-38.62L334.01-38.62Q338.68-38.62 342.57-37.68 346.46-36.74 349.81-34.81L349.81-34.81 346.24-28.96Q345.24-29.61 343.94-30.13 342.63-30.64 341.15-30.99 339.68-31.35 338.1-31.54 336.53-31.74 334.99-31.74L334.99-31.74Q331.28-31.74 328.37-30.82 325.47-29.91 323.48-28.26 321.49-26.61 320.45-24.33 319.41-22.05 319.41-19.31L319.41-19.31Q319.41-16.48 320.49-14.11 321.56-11.74 323.6-10.02 325.64-8.3 328.58-7.34 331.52-6.37 335.23-6.37L335.23-6.37Q336.92-6.37 338.58-6.62 340.24-6.86 341.79-7.29 343.34-7.71 344.78-8.31 346.22-8.91 347.47-9.62L347.47-9.62 351.03-3.76Q347.9-1.76 343.8-0.62 339.7 0.51 335.09 0.51L335.09 0.51Q329.2 0.51 324.76-1.01 320.32-2.54 317.34-5.21 314.36-7.89 312.86-11.51 311.36-15.14 311.36-19.31ZM359.52 0L359.52-38.16 367.26-38.16 367.26-28.2 390.99-28.2 390.99-38.16 398.76-38.16 398.76 0 390.99 0 390.99-21.58 367.26-21.58 367.26 0 359.52 0Z" opacity="1" transform="matrix(1,0,0,1,0,0)" fill="#0080ff" class="undefined-text-0" data-fill-palette-color="primary" id="text-0"></path></svg></g></svg></g><g transform="matrix(1,0,0,1,100.925708544,29.73040835830134)"><svg viewBox="0 0 143.50565145599998 13.815191172750074" height="13.815191172750074" width="143.50565145599998"><g transform="matrix(1,0,0,1,0,0)"><svg width="143.50565145599998" viewBox="3 -38.849998474121094 507.8999938964844 48.89999771118164" height="13.815191172750074" data-palette-color="#0080ff"><path d="M3 0L3-20.9 6.75-20.9Q6.85-19.35 6.93-18.07 7-16.8 7.1-15.55L7.1-15.55Q8.25-18.25 10.13-19.83 12-21.4 15.15-21.45L15.15-21.45Q18.2-21.45 20.05-19.9 21.9-18.35 22.2-15.85L22.2-15.85Q23.45-18.4 25.28-19.9 27.1-21.4 30.2-21.45L30.2-21.45Q33.45-21.45 35.33-19.7 37.2-17.95 37.3-15.2L37.3-15.2 37.3 0 33 0 33-13.25Q32.9-14.85 31.93-15.98 30.95-17.1 28.75-17.2L28.75-17.2Q25.75-17.2 24.05-15.28 22.35-13.35 22.25-10.35L22.25-10.35 22.25 0 18 0 18-13.25Q17.9-14.85 16.88-15.98 15.85-17.1 13.75-17.2L13.75-17.2Q12.25-17.2 11.05-16.68 9.85-16.15 9-15.25 8.15-14.35 7.7-13.1 7.25-11.85 7.25-10.35L7.25-10.35 7.25 0 3 0ZM41.65-10.5L41.65-10.5Q41.65-12.75 42.52-14.75 43.4-16.75 44.9-18.23 46.4-19.7 48.42-20.58 50.45-21.45 52.8-21.45L52.8-21.45Q55.15-21.45 57.17-20.58 59.2-19.7 60.67-18.23 62.15-16.75 62.97-14.75 63.8-12.75 63.8-10.5L63.8-10.5Q63.8-8.25 62.97-6.25 62.15-4.25 60.67-2.75 59.2-1.25 57.17-0.38 55.15 0.5 52.75 0.5L52.75 0.5Q50.45 0.5 48.42-0.3 46.4-1.1 44.9-2.55 43.4-4 42.52-6.03 41.65-8.05 41.65-10.5ZM45.9-10.45L45.9-10.45Q45.9-9.05 46.42-7.83 46.95-6.6 47.87-5.68 48.8-4.75 50.02-4.23 51.25-3.7 52.65-3.7L52.65-3.7Q54.05-3.7 55.3-4.23 56.55-4.75 57.47-5.68 58.4-6.6 58.95-7.83 59.5-9.05 59.5-10.45L59.5-10.45Q59.5-11.85 58.95-13.1 58.4-14.35 57.47-15.28 56.55-16.2 55.3-16.73 54.05-17.25 52.65-17.25L52.65-17.25Q51.25-17.25 50.02-16.73 48.8-16.2 47.87-15.28 46.95-14.35 46.42-13.1 45.9-11.85 45.9-10.45ZM66.94-10.45L66.94-10.45Q66.94-12.9 67.77-14.93 68.59-16.95 70.05-18.4 71.5-19.85 73.47-20.65 75.44-21.45 77.75-21.45L77.75-21.45Q79.3-21.45 80.52-21.08 81.75-20.7 82.62-20.18 83.5-19.65 84.09-19 84.69-18.35 85-17.85L85-17.85 85-38.85 89.3-38.85 89.3 0 85 0 85-1.55Q85-1.85 85.05-2.23 85.09-2.6 85.09-2.85L85.09-2.85Q84.59-2.25 83.92-1.68 83.25-1.1 82.34-0.6 81.44-0.1 80.27 0.2 79.09 0.5 77.59 0.5L77.59 0.5Q75.09 0.5 73.12-0.38 71.14-1.25 69.77-2.73 68.39-4.2 67.67-6.2 66.94-8.2 66.94-10.45ZM71.25-10.5L71.25-10.5Q71.25-9.05 71.77-7.8 72.3-6.55 73.19-5.65 74.09-4.75 75.34-4.23 76.59-3.7 78.09-3.7L78.09-3.7Q79.59-3.7 80.87-4.23 82.14-4.75 83.07-5.68 84-6.6 84.5-7.83 85-9.05 85-10.5L85-10.5Q85-11.95 84.5-13.18 84-14.4 83.07-15.3 82.14-16.2 80.87-16.73 79.59-17.25 78.09-17.25L78.09-17.25Q76.59-17.25 75.34-16.73 74.09-16.2 73.19-15.3 72.3-14.4 71.77-13.18 71.25-11.95 71.25-10.5ZM109.79-5.55L112.99-2.45Q111.49-1.1 109.34-0.3 107.19 0.5 104.94 0.5L104.94 0.5Q102.64 0.5 100.62-0.38 98.59-1.25 97.09-2.73 95.59-4.2 94.72-6.2 93.84-8.2 93.84-10.45L93.84-10.45Q93.84-12.7 94.72-14.7 95.59-16.7 97.09-18.2 98.59-19.7 100.57-20.58 102.54-21.45 104.79-21.45L104.79-21.45Q108.34-21.45 110.97-19.33 113.59-17.2 114.74-13.75L114.74-13.75Q113.19-13.2 111.19-12.4 109.19-11.6 107.04-10.73 104.89-9.85 102.74-9 100.59-8.15 98.74-7.45L98.74-7.45Q99.59-5.75 101.22-4.73 102.84-3.7 104.84-3.7L104.84-3.7Q106.19-3.7 107.57-4.2 108.94-4.7 109.79-5.55L109.79-5.55ZM109.39-14.75L109.39-14.75Q108.79-16 107.49-16.63 106.19-17.25 104.84-17.25L104.84-17.25Q103.39-17.25 102.17-16.7 100.94-16.15 100.04-15.23 99.14-14.3 98.62-13.1 98.09-11.9 98.09-10.65L98.09-10.65Q98.09-10.4 98.12-10.3 98.14-10.2 98.14-10.15L98.14-10.15Q99.44-10.65 100.97-11.28 102.49-11.9 103.99-12.53 105.49-13.15 106.89-13.73 108.29-14.3 109.39-14.75ZM130.89-21.45L129.94-15.95Q128.54-15.95 127.24-15.58 125.94-15.2 124.92-14.45 123.89-13.7 123.29-12.58 122.69-11.45 122.69-10L122.69-10 122.69 0 118.44 0 118.44-20.9 122.19-20.9Q122.29-19.35 122.37-18.07 122.44-16.8 122.54-15.55L122.54-15.55Q123.19-16.9 124.24-18 125.29-19.1 126.49-19.85 127.69-20.6 128.84-21.03 129.99-21.45 130.89-21.45L130.89-21.45ZM133.99 0L133.99-20.9 137.74-20.9Q137.84-19.35 137.91-18.07 137.99-16.8 138.09-15.55L138.09-15.55Q139.24-18.25 141.36-19.85 143.49-21.45 146.59-21.45L146.59-21.45Q149.74-21.45 151.64-19.7 153.54-17.95 153.64-15.2L153.64-15.2 153.64 0 149.34 0 149.34-13.25Q149.24-14.85 148.24-15.98 147.24-17.1 145.09-17.2L145.09-17.2Q143.59-17.2 142.34-16.68 141.09-16.15 140.19-15.25 139.29-14.35 138.76-13.1 138.24-11.85 138.24-10.35L138.24-10.35 138.24 0 133.99 0ZM176.23-17.55L176.23-17.55 174.68-20.9 178.38-20.9Q179.83-17.75 180.83-15.48 181.83-13.2 182.53-11.53 183.23-9.85 183.68-8.7 184.13-7.55 184.43-6.75L184.43-6.75Q184.73-8.25 185.16-9.47 185.58-10.7 186.23-12.23 186.88-13.75 187.81-15.78 188.73-17.8 190.03-20.9L190.03-20.9 194.33-20.9 184.43 1.25Q183.53-0.6 182.76-2.43 181.98-4.25 181.26-6.05 180.53-7.85 179.76-9.65 178.98-11.45 178.08-13.35L178.08-13.35 171.73 1.25 162.28-20.9 166.58-20.9Q167.88-17.8 168.73-15.75 169.58-13.7 170.16-12.2 170.73-10.7 171.08-9.47 171.43-8.25 171.73-6.75L171.73-6.75Q171.93-7.35 172.21-8.1 172.48-8.85 172.96-10.03 173.43-11.2 174.23-13 175.03-14.8 176.23-17.55ZM211.38-5.55L214.58-2.45Q213.08-1.1 210.93-0.3 208.78 0.5 206.53 0.5L206.53 0.5Q204.23 0.5 202.21-0.38 200.18-1.25 198.68-2.73 197.18-4.2 196.31-6.2 195.43-8.2 195.43-10.45L195.43-10.45Q195.43-12.7 196.31-14.7 197.18-16.7 198.68-18.2 200.18-19.7 202.16-20.58 204.13-21.45 206.38-21.45L206.38-21.45Q209.93-21.45 212.56-19.33 215.18-17.2 216.33-13.75L216.33-13.75Q214.78-13.2 212.78-12.4 210.78-11.6 208.63-10.73 206.48-9.85 204.33-9 202.18-8.15 200.33-7.45L200.33-7.45Q201.18-5.75 202.81-4.73 204.43-3.7 206.43-3.7L206.43-3.7Q207.78-3.7 209.16-4.2 210.53-4.7 211.38-5.55L211.38-5.55ZM210.98-14.75L210.98-14.75Q210.38-16 209.08-16.63 207.78-17.25 206.43-17.25L206.43-17.25Q204.98-17.25 203.76-16.7 202.53-16.15 201.63-15.23 200.73-14.3 200.21-13.1 199.68-11.9 199.68-10.65L199.68-10.65Q199.68-10.4 199.71-10.3 199.73-10.2 199.73-10.15L199.73-10.15Q201.03-10.65 202.56-11.28 204.08-11.9 205.58-12.53 207.08-13.15 208.48-13.73 209.88-14.3 210.98-14.75ZM242.38-10.4L242.38-10.4Q242.38-8.05 241.58-6.05 240.78-4.05 239.33-2.6 237.88-1.15 235.85-0.33 233.83 0.5 231.43 0.5L231.43 0.5Q230.18 0.5 229.05 0.23 227.93-0.05 226.98-0.53 226.03-1 225.33-1.58 224.63-2.15 224.28-2.75L224.28-2.75Q224.28-2.5 224.3-2.23 224.33-1.95 224.33-1.7L224.33-1.7 224.33 0 220.03 0 220.03-38.85 224.33-38.85 224.33-17.85Q224.73-18.45 225.4-19.07 226.08-19.7 227-20.23 227.93-20.75 229.08-21.1 230.23-21.45 231.63-21.45L231.63-21.45Q234.03-21.45 236-20.68 237.98-19.9 239.4-18.48 240.83-17.05 241.6-15 242.38-12.95 242.38-10.4ZM237.73-10.5L237.73-10.5Q237.73-11.95 237.28-13.18 236.83-14.4 235.98-15.3 235.13-16.2 233.93-16.73 232.73-17.25 231.23-17.25L231.23-17.25Q229.73-17.25 228.45-16.73 227.18-16.2 226.28-15.3 225.38-14.4 224.85-13.18 224.33-11.95 224.33-10.5L224.33-10.5Q224.33-9.05 224.85-7.8 225.38-6.55 226.28-5.65 227.18-4.75 228.45-4.23 229.73-3.7 231.23-3.7L231.23-3.7Q232.73-3.7 233.93-4.23 235.13-4.75 235.98-5.68 236.83-6.6 237.28-7.83 237.73-9.05 237.73-10.5ZM252.12-10.45L252.12-10.45Q252.12-12.9 252.95-14.93 253.77-16.95 255.22-18.4 256.67-19.85 258.65-20.65 260.62-21.45 262.92-21.45L262.92-21.45Q264.47-21.45 265.7-21.08 266.92-20.7 267.8-20.18 268.67-19.65 269.27-19 269.87-18.35 270.17-17.85L270.17-17.85 270.17-38.85 274.47-38.85 274.47 0 270.17 0 270.17-1.55Q270.17-1.85 270.22-2.23 270.27-2.6 270.27-2.85L270.27-2.85Q269.77-2.25 269.1-1.68 268.42-1.1 267.52-0.6 266.62-0.1 265.45 0.2 264.27 0.5 262.77 0.5L262.77 0.5Q260.27 0.5 258.3-0.38 256.32-1.25 254.95-2.73 253.57-4.2 252.85-6.2 252.12-8.2 252.12-10.45ZM256.42-10.5L256.42-10.5Q256.42-9.05 256.95-7.8 257.47-6.55 258.37-5.65 259.27-4.75 260.52-4.23 261.77-3.7 263.27-3.7L263.27-3.7Q264.77-3.7 266.05-4.23 267.32-4.75 268.25-5.68 269.17-6.6 269.67-7.83 270.17-9.05 270.17-10.5L270.17-10.5Q270.17-11.95 269.67-13.18 269.17-14.4 268.25-15.3 267.32-16.2 266.05-16.73 264.77-17.25 263.27-17.25L263.27-17.25Q261.77-17.25 260.52-16.73 259.27-16.2 258.37-15.3 257.47-14.4 256.95-13.18 256.42-11.95 256.42-10.5ZM294.97-5.55L298.17-2.45Q296.67-1.1 294.52-0.3 292.37 0.5 290.12 0.5L290.12 0.5Q287.82 0.5 285.8-0.38 283.77-1.25 282.27-2.73 280.77-4.2 279.9-6.2 279.02-8.2 279.02-10.45L279.02-10.45Q279.02-12.7 279.9-14.7 280.77-16.7 282.27-18.2 283.77-19.7 285.75-20.58 287.72-21.45 289.97-21.45L289.97-21.45Q293.52-21.45 296.15-19.33 298.77-17.2 299.92-13.75L299.92-13.75Q298.37-13.2 296.37-12.4 294.37-11.6 292.22-10.73 290.07-9.85 287.92-9 285.77-8.15 283.92-7.45L283.92-7.45Q284.77-5.75 286.4-4.73 288.02-3.7 290.02-3.7L290.02-3.7Q291.37-3.7 292.75-4.2 294.12-4.7 294.97-5.55L294.97-5.55ZM294.57-14.75L294.57-14.75Q293.97-16 292.67-16.63 291.37-17.25 290.02-17.25L290.02-17.25Q288.57-17.25 287.35-16.7 286.12-16.15 285.22-15.23 284.32-14.3 283.8-13.1 283.27-11.9 283.27-10.65L283.27-10.65Q283.27-10.4 283.3-10.3 283.32-10.2 283.32-10.15L283.32-10.15Q284.62-10.65 286.15-11.28 287.67-11.9 289.17-12.53 290.67-13.15 292.07-13.73 293.47-14.3 294.57-14.75ZM311.47 1.25L311.47 1.25Q308.52-4.35 305.94-9.83 303.37-15.3 300.52-20.9L300.52-20.9 305.17-20.9Q306.97-17.35 308.04-15.1 309.12-12.85 309.77-11.35 310.42-9.85 310.77-8.83 311.12-7.8 311.47-6.75L311.47-6.75Q311.87-7.8 312.24-8.83 312.62-9.85 313.24-11.35 313.87-12.85 314.94-15.1 316.02-17.35 317.82-20.9L317.82-20.9 322.47-20.9Q319.62-15.3 316.97-9.83 314.32-4.35 311.47 1.25ZM339.31-5.55L342.51-2.45Q341.01-1.1 338.87-0.3 336.71 0.5 334.46 0.5L334.46 0.5Q332.17 0.5 330.14-0.38 328.12-1.25 326.62-2.73 325.12-4.2 324.24-6.2 323.37-8.2 323.37-10.45L323.37-10.45Q323.37-12.7 324.24-14.7 325.12-16.7 326.62-18.2 328.12-19.7 330.09-20.58 332.06-21.45 334.31-21.45L334.31-21.45Q337.87-21.45 340.49-19.33 343.12-17.2 344.26-13.75L344.26-13.75Q342.71-13.2 340.71-12.4 338.71-11.6 336.56-10.73 334.42-9.85 332.26-9 330.12-8.15 328.26-7.45L328.26-7.45Q329.12-5.75 330.74-4.73 332.37-3.7 334.37-3.7L334.37-3.7Q335.71-3.7 337.09-4.2 338.46-4.7 339.31-5.55L339.31-5.55ZM338.92-14.75L338.92-14.75Q338.31-16 337.01-16.63 335.71-17.25 334.37-17.25L334.37-17.25Q332.92-17.25 331.69-16.7 330.46-16.15 329.56-15.23 328.67-14.3 328.14-13.1 327.62-11.9 327.62-10.65L327.62-10.65Q327.62-10.4 327.64-10.3 327.67-10.2 327.67-10.15L327.67-10.15Q328.96-10.65 330.49-11.28 332.01-11.9 333.51-12.53 335.01-13.15 336.42-13.73 337.81-14.3 338.92-14.75ZM352.26-38.85L352.26 0 348.01 0 348.01-38.85 352.26-38.85ZM356.86-10.5L356.86-10.5Q356.86-12.75 357.74-14.75 358.61-16.75 360.11-18.23 361.61-19.7 363.63-20.58 365.66-21.45 368.01-21.45L368.01-21.45Q370.36-21.45 372.38-20.58 374.41-19.7 375.88-18.23 377.36-16.75 378.19-14.75 379.01-12.75 379.01-10.5L379.01-10.5Q379.01-8.25 378.19-6.25 377.36-4.25 375.88-2.75 374.41-1.25 372.38-0.38 370.36 0.5 367.96 0.5L367.96 0.5Q365.66 0.5 363.63-0.3 361.61-1.1 360.11-2.55 358.61-4 357.74-6.03 356.86-8.05 356.86-10.5ZM361.11-10.45L361.11-10.45Q361.11-9.05 361.63-7.83 362.16-6.6 363.08-5.68 364.01-4.75 365.24-4.23 366.46-3.7 367.86-3.7L367.86-3.7Q369.26-3.7 370.51-4.23 371.76-4.75 372.69-5.68 373.61-6.6 374.16-7.83 374.71-9.05 374.71-10.45L374.71-10.45Q374.71-11.85 374.16-13.1 373.61-14.35 372.69-15.28 371.76-16.2 370.51-16.73 369.26-17.25 367.86-17.25L367.86-17.25Q366.46-17.25 365.24-16.73 364.01-16.2 363.08-15.28 362.16-14.35 361.63-13.1 361.11-11.85 361.11-10.45ZM401.26-10.5L401.26-10.5Q401.26-11.95 400.81-13.18 400.36-14.4 399.51-15.3 398.66-16.2 397.46-16.73 396.26-17.25 394.76-17.25L394.76-17.25Q393.26-17.25 391.98-16.73 390.71-16.2 389.81-15.3 388.91-14.4 388.38-13.18 387.86-11.95 387.86-10.5L387.86-10.5Q387.86-9.05 388.38-7.8 388.91-6.55 389.81-5.65 390.71-4.75 391.98-4.23 393.26-3.7 394.76-3.7L394.76-3.7Q396.26-3.7 397.46-4.23 398.66-4.75 399.51-5.68 400.36-6.6 400.81-7.83 401.26-9.05 401.26-10.5ZM405.91-10.4L405.91-10.4Q405.91-8.05 405.11-6.05 404.31-4.05 402.86-2.6 401.41-1.15 399.38-0.33 397.36 0.5 394.96 0.5L394.96 0.5Q393.71 0.5 392.58 0.23 391.46-0.05 390.51-0.53 389.56-1 388.86-1.58 388.16-2.15 387.81-2.75L387.81-2.75Q387.81-2.5 387.83-2.23 387.86-1.95 387.86-1.7L387.86-1.7 387.86 10.05 383.56 10.05 383.56-20.9 387.71-20.9Q387.71-20.3 387.78-19.43 387.86-18.55 387.86-17.85L387.86-17.85Q388.26-18.45 388.93-19.07 389.61-19.7 390.53-20.23 391.46-20.75 392.61-21.1 393.76-21.45 395.16-21.45L395.16-21.45Q397.56-21.45 399.53-20.68 401.51-19.9 402.93-18.48 404.36-17.05 405.13-15 405.91-12.95 405.91-10.4ZM410.56 0L410.56-20.9 414.31-20.9Q414.41-19.35 414.48-18.07 414.56-16.8 414.66-15.55L414.66-15.55Q415.81-18.25 417.68-19.83 419.56-21.4 422.7-21.45L422.7-21.45Q425.75-21.45 427.61-19.9 429.45-18.35 429.75-15.85L429.75-15.85Q431-18.4 432.83-19.9 434.66-21.4 437.75-21.45L437.75-21.45Q441-21.45 442.88-19.7 444.75-17.95 444.86-15.2L444.86-15.2 444.86 0 440.56 0 440.56-13.25Q440.45-14.85 439.48-15.98 438.5-17.1 436.31-17.2L436.31-17.2Q433.31-17.2 431.61-15.28 429.91-13.35 429.81-10.35L429.81-10.35 429.81 0 425.56 0 425.56-13.25Q425.45-14.85 424.43-15.98 423.41-17.1 421.31-17.2L421.31-17.2Q419.81-17.2 418.61-16.68 417.41-16.15 416.56-15.25 415.7-14.35 415.25-13.1 414.81-11.85 414.81-10.35L414.81-10.35 414.81 0 410.56 0ZM465.15-5.55L468.35-2.45Q466.85-1.1 464.7-0.3 462.55 0.5 460.3 0.5L460.3 0.5Q458 0.5 455.98-0.38 453.95-1.25 452.45-2.73 450.95-4.2 450.08-6.2 449.2-8.2 449.2-10.45L449.2-10.45Q449.2-12.7 450.08-14.7 450.95-16.7 452.45-18.2 453.95-19.7 455.93-20.58 457.9-21.45 460.15-21.45L460.15-21.45Q463.7-21.45 466.33-19.33 468.95-17.2 470.1-13.75L470.1-13.75Q468.55-13.2 466.55-12.4 464.55-11.6 462.4-10.73 460.25-9.85 458.1-9 455.95-8.15 454.1-7.45L454.1-7.45Q454.95-5.75 456.58-4.73 458.2-3.7 460.2-3.7L460.2-3.7Q461.55-3.7 462.93-4.2 464.3-4.7 465.15-5.55L465.15-5.55ZM464.75-14.75L464.75-14.75Q464.15-16 462.85-16.63 461.55-17.25 460.2-17.25L460.2-17.25Q458.75-17.25 457.53-16.7 456.3-16.15 455.4-15.23 454.5-14.3 453.98-13.1 453.45-11.9 453.45-10.65L453.45-10.65Q453.45-10.4 453.48-10.3 453.5-10.2 453.5-10.15L453.5-10.15Q454.8-10.65 456.33-11.28 457.85-11.9 459.35-12.53 460.85-13.15 462.25-13.73 463.65-14.3 464.75-14.75ZM473.8 0L473.8-20.9 477.55-20.9Q477.65-19.35 477.73-18.07 477.8-16.8 477.9-15.55L477.9-15.55Q479.05-18.25 481.18-19.85 483.3-21.45 486.4-21.45L486.4-21.45Q489.55-21.45 491.45-19.7 493.35-17.95 493.45-15.2L493.45-15.2 493.45 0 489.15 0 489.15-13.25Q489.05-14.85 488.05-15.98 487.05-17.1 484.9-17.2L484.9-17.2Q483.4-17.2 482.15-16.68 480.9-16.15 480-15.25 479.1-14.35 478.57-13.1 478.05-11.85 478.05-10.35L478.05-10.35 478.05 0 473.8 0ZM501.05-20.85L501.05-30.1 505.3-30.1 505.3-20.85 510.9-20.85 510.9-17.05 505.3-17.05 505.3 0 501.05 0 501.05-17.05 497.3-17.05 497.3-20.85 501.05-20.85Z" opacity="1" transform="matrix(1,0,0,1,0,0)" fill="#0080ff" class="undefined-text-1" data-fill-palette-color="secondary" id="text-1"></path></svg></g></svg></g></svg></g></svg></g><g transform="matrix(1,0,0,1,250.10951885398174,0)"><svg viewBox="0 0 60.18001855191305 60.18001855191305" height="60.18001855191305" width="60.18001855191305"><g data-palette-color="#010c80"><rect width="16.449205070856234" height="60.18001855191305" fill="#010c80" stroke="transparent" data-fill-palette-color="accent" x="0" fill-opacity="1"></rect><rect width="16.449205070856234" height="60.18001855191305" fill="#010c80" stroke="transparent" data-fill-palette-color="accent" x="20.060006183971016" fill-opacity="0.75"></rect><rect width="16.449205070856234" height="60.18001855191305" fill="#010c80" stroke="transparent" data-fill-palette-color="accent" x="40.12001236794203" fill-opacity="0.5"></rect></g></svg></g></svg></g></svg></g><g><path d="M245.816 0c68.262 0 123.6 55.338 123.6 123.6 0 68.262-55.338 123.6-123.6 123.6-59.365 0-108.955-41.852-120.874-97.66l0.874 0c11.904 55.333 61.109 96.806 120 96.806 67.791 0 122.746-54.955 122.745-122.746 0-67.791-54.955-122.746-122.745-122.746-58.891 0-108.095 41.473-120 96.806l-0.874 0c11.919-55.808 61.509-97.66 120.874-97.66z" fill="#0080ff" stroke="transparent" data-fill-palette-color="tertiary"></path></g></svg></g><defs></defs></svg><rect width="395.52" height="247.2" fill="none" stroke="none" visibility="hidden"></rect></g></svg></g></svg>