<svg xmlns="http://www.w3.org/2000/svg" version="1.1" xmlns:xlink="http://www.w3.org/1999/xlink" xmlns:svgjs="http://svgjs.com/svgjs" width="1440" height="563" preserveAspectRatio="none" viewBox="0 0 1440 563">
    <g mask="url(&quot;#SvgjsMask1041&quot;)" fill="none">
        <path d="M -398.4213061296517,384.5 C -302.42,357.1 -110.42,228.9 81.57869387034825,247.5 C 273.58,266.1 369.58,494.9 561.5786938703483,477.5 C 753.58,460.1 849.58,193.3 1041.5786938703482,160.5 C 1233.58,127.7 1441.89,314.9 1521.5786938703482,313.5 C 1601.26,312.1 1456.32,185.5 1440,153.5" stroke="rgba(51, 121, 194, 0.58)" stroke-width="2"></path>
        <path d="M -281.7598264058844,263.5 C -185.76,310.9 6.24,500.9 198.24017359411562,500.5 C 390.24,500.1 486.24,267.9 678.2401735941156,261.5 C 870.24,255.1 966.24,486.9 1158.2401735941157,468.5 C 1350.24,450.1 1581.89,202.3 1638.2401735941157,169.5 C 1694.59,136.7 1479.65,277.5 1440,304.5" stroke="rgba(51, 121, 194, 0.58)" stroke-width="2"></path>
        <path d="M -99.39125444045345,290.5 C -3.39,267.7 188.61,166.3 380.60874555954655,176.5 C 572.61,186.7 668.61,336.7 860.6087455595466,341.5 C 1052.61,346.3 1148.61,193.9 1340.6087455595466,200.5 C 1532.61,207.1 1800.73,403.3 1820.6087455595466,374.5 C 1840.49,345.7 1516.12,120.1 1440,56.5" stroke="rgba(51, 121, 194, 0.58)" stroke-width="2"></path>
    </g>
    <defs>
        <mask id="SvgjsMask1041">
            <rect width="1440" height="563" fill="#ffffff"></rect>
        </mask>
    </defs>
</svg>